<?xml version="1.0" encoding="UTF-8" standalone="no"?>
<!-- Created with Inkscape (http://www.inkscape.org/) -->

<svg
   width="28in"
   height="7in"
   viewBox="0 0 711.2 177.8"
   version="1.1"
   id="svg5"
   xml:space="preserve"
   sodipodi:docname="HackStencil horizontal.svg"
   inkscape:version="1.2.1 (9c6d41e410, 2022-07-14)"
   xmlns:inkscape="http://www.inkscape.org/namespaces/inkscape"
   xmlns:sodipodi="http://sodipodi.sourceforge.net/DTD/sodipodi-0.dtd"
   xmlns="http://www.w3.org/2000/svg"
   xmlns:svg="http://www.w3.org/2000/svg"><sodipodi:namedview
     id="namedview47"
     pagecolor="#ffffff"
     bordercolor="#000000"
     borderopacity="0.25"
     inkscape:showpageshadow="2"
     inkscape:pageopacity="0.0"
     inkscape:pagecheckerboard="0"
     inkscape:deskcolor="#d1d1d1"
     inkscape:document-units="in"
     showgrid="false"
     showguides="false"
     inkscape:zoom="0.31138393"
     inkscape:cx="528.28674"
     inkscape:cy="790.0215"
     inkscape:window-width="1920"
     inkscape:window-height="1017"
     inkscape:window-x="-8"
     inkscape:window-y="-8"
     inkscape:window-maximized="1"
     inkscape:current-layer="svg5" /><defs
     id="defs2"><rect
       x="-572.62762"
       y="378.06161"
       width="317.49652"
       height="224.80377"
       id="rect570" /><rect
       x="-279.69931"
       y="563.58185"
       width="49.136364"
       height="66.548615"
       id="rect564" /><rect
       x="-211.66434"
       y="238.12238"
       width="566.95807"
       height="145.51923"
       id="rect558" /><rect
       x="-646.33215"
       y="137.95979"
       width="1509.9983"
       height="427.68961"
       id="rect552" /><rect
       x="-652.00177"
       y="302.37762"
       width="838.22601"
       height="184.15134"
       id="rect546" /><rect
       x="1021.4694"
       y="388.83875"
       width="172.92221"
       height="227.25569"
       id="rect593" /><rect
       x="567.90302"
       y="100.16259"
       width="415.76923"
       height="405.375"
       id="rect537" /><rect
       x="567.90302"
       y="100.16259"
       width="415.76923"
       height="405.375"
       id="rect537-0" /><rect
       x="-646.33215"
       y="137.95979"
       width="1509.9983"
       height="427.68961"
       id="rect552-3" /></defs><g
     id="g496"
     transform="matrix(1.0741594,0,0,1.0741594,-6.4201393,-6.8209119)"><g
       id="g3050"
       transform="matrix(0.24567025,0,0,0.24567025,-4.0707655,6.713454)"
       style="stroke-width:1.07692" /><g
       id="g3054"
       transform="matrix(0.24567025,0,0,0.24567025,-4.0707655,6.713454)"
       style="stroke-width:1.07692" /><g
       id="g3060"
       transform="matrix(0.24567025,0,0,0.24567025,-4.0707655,6.713454)"
       style="stroke-width:1.07692" /><g
       id="g3064"
       transform="matrix(0.24567025,0,0,0.24567025,-4.0707655,6.713454)"
       style="stroke-width:1.07692" /><g
       id="g3068"
       transform="matrix(0.24567025,0,0,0.24567025,-4.0707655,6.713454)"
       style="stroke-width:1.07692" /><g
       id="g3072"
       transform="matrix(0.24567025,0,0,0.24567025,-4.0707655,6.713454)"
       style="stroke-width:1.07692" /><g
       id="g3076"
       transform="matrix(0.24567025,0,0,0.24567025,-4.0707655,6.713454)"
       style="stroke-width:1.07692" /><path
       id="rect3082"
       style="fill:#000000;fill-opacity:1;stroke:none;stroke-width:0.608541;stroke-miterlimit:4;stroke-dasharray:none;stroke-opacity:1"
       d="m 506.0673,169.67491 v 2.19987 h 8.01295 v -2.19987 z" /><path
       id="path474"
       style="fill:#000000;fill-opacity:1;stroke:none;stroke-width:0.608541;stroke-miterlimit:4;stroke-dasharray:none;stroke-opacity:1"
       d="m 503.43129,165.37905 v 2.20142 h 13.28497 v -2.20142 z" /><path
       id="path472"
       style="fill:#000000;fill-opacity:1;stroke:none;stroke-width:0.608541;stroke-miterlimit:4;stroke-dasharray:none;stroke-opacity:1"
       d="m 244.68791,146.78226 v 13.29737 h 2.69286 v -5.48442 L 508.86713,155.02 v 6.06733 h -8.61446 v 2.20865 h 19.63188 v -2.20865 h -8.80877 v -8.25015 L 247.38077,152.4124 v -5.63014 z" /><path
       id="path468"
       style="fill:#000000;fill-opacity:1;stroke:none;stroke-width:0.608541;stroke-miterlimit:4;stroke-dasharray:none;stroke-opacity:1"
       d="m 20.610111,6.35 v 14.558801 h -0.291455 c 0,3.993477 -0.0036,7.964635 0.02429,11.964645 h -0.485758 v 0.58136 c -0.466638,0.236284 -0.777214,0.618716 -0.777214,1.04438 0,0.562456 0.526449,1.013016 1.262972,1.188558 0.0092,4.566597 -0.01842,9.148107 -0.09715,13.734562 H 19.68717 c -0.0088,0.631948 0.04707,1.32213 -0.07286,1.844332 -0.29695,0.236997 -0.408988,0.479052 -0.607198,0.58291 0.0037,0.571956 0.0022,1.077889 0,1.504301 0,0.0346 0.165051,0.168266 0.194303,0.24288 0.07387,0.189447 0.02429,0.671234 0.02429,1.5043 -0.918646,0.152157 -2.01631,0.07716 -2.692859,0.534335 -0.07094,0.299865 -0.05303,0.554115 -0.04858,0.824756 0.0045,0.274979 0.122741,0.583014 0.09715,0.800984 -0.02997,0.238444 -0.408837,0.625503 -0.58291,0.850078 -0.381064,0.494434 -0.710523,0.775894 -1.237134,1.16427 0.04024,0.37157 0.15407,0.618329 0.194303,0.994254 0.04534,0.43228 -0.125802,0.976605 0,1.48053 0.128728,0.517831 1.107928,0.716514 1.042831,1.213879 -0.03731,0.281577 -0.729008,0.518393 -0.799951,1.042831 -0.07094,0.520777 0.02454,0.926046 0.314192,1.190108 0.403734,0.37005 0.659993,0.321292 1.214396,0.436149 h 2.911451 v 34.750847 l -5.120101,3.83439 c 0,0 6.50625,4.43414 8.565885,5.84719 -2.168616,1.40502 -9.778731,6.3345 -9.778731,6.3345 0,0 7.905462,4.37831 10.458793,5.80016 -2.62647,1.49502 -11.454598,6.52725 -11.454598,6.52725 0,0 9.657636,4.99247 12.303125,6.35724 -1.657472,1.11571 -4.888953,3.29955 -4.925798,3.32434 h -0.04857 v 14.00328 h -6.988721 c -0.435754,-1.39217 -1.717896,-2.40295 -3.2514813,-2.40295 -0.9149866,0 -1.779949,0.34928 -2.427242,0.9958 -0.6473465,0.64735 -0.9942545,1.51095 -0.9942545,2.42569 0,0.9154 0.346962,1.78001 0.9942545,2.42725 0.6049854,0.60515 1.4000442,0.94741 2.2484416,0.9896 v -1.82676 c -0.3562615,-0.0439 -0.680426,-0.21674 -0.938444,-0.47439 -0.3006072,-0.30143 -0.4599203,-0.68965 -0.4599203,-1.1157 0,-0.42534 0.1593131,-0.83858 0.4599203,-1.13998 0.2735674,-0.27387 0.6217561,-0.43171 1.0030395,-0.45785 0.037686,-0.003 0.075916,-0.004 0.1142049,-0.004 0.8045013,0 1.4774353,0.60445 1.5859493,1.38131 0.01007,0.0721 0.0155,0.14543 0.0155,0.22014 0,0.42605 -0.160863,0.81427 -0.46147,1.1157 -0.247825,0.24747 -0.5721149,0.41679 -0.9172568,0.4687 v 1.83038 c 0.8317448,-0.0517 1.6091328,-0.39287 2.2029658,-0.98753 0.36126,-0.36089 0.632904,-0.79645 0.801502,-1.26298 H 238.59629 v 5.48442 h 2.66857 v -13.29737 h -2.66857 v 5.63014 H 22.333004 v -12.83746 l 7.085872,-4.97437 c 0,0 -9.194968,-4.72433 -11.988932,-6.16448 2.685718,-1.52934 11.30887,-6.45439 11.30887,-6.45439 0,0 -8.219866,-4.57741 -10.677384,-5.94589 2.305388,-1.4935 9.415963,-6.09162 9.415963,-6.09162 0,0 -6.790517,-4.66555 -8.760189,-6.0172 1.172302,-0.88196 3.591512,-2.69441 3.591512,-2.69441 0.04973,-11.711771 0.02434,-23.686257 0.02429,-35.575089 h 3.49436 c 0.935465,-0.340863 1.362678,-1.198846 0.727087,-2.135787 -0.142621,-0.212099 -0.579315,-0.344018 -0.605647,-0.557589 -0.06071,-0.45423 0.539296,-0.310276 0.872815,-1.165303 0.05195,-0.133122 0.05738,-1.416449 0.170015,-1.529106 0.01243,-0.190164 0.05358,-0.207575 0.145728,-1.04283 -0.48858,-0.337914 -0.771355,-0.634451 -1.139982,-1.115694 -0.193093,-0.247223 -0.573553,-0.569956 -0.607199,-0.850078 -0.01757,-0.139691 0.05895,-0.286511 0.07286,-0.437182 0.02998,-0.345221 -0.02268,-0.729805 0,-1.16427 -0.611451,-0.471716 -1.80575,-0.366275 -2.694409,-0.558623 0,-0.508303 -0.01978,-1.023051 0,-1.5043 0.08265,-0.07899 0.1747,-0.149396 0.218591,-0.267168 v -1.480013 c -0.270618,-0.143337 -0.425294,-0.400032 -0.654223,-0.58291 -0.12142,-0.522931 -0.06335,-1.212384 -0.07286,-1.844332 h -0.340031 c -0.09578,-4.585777 -0.170892,-9.17303 -0.194303,-13.75885 0.683862,-0.195999 1.16427,-0.653152 1.16427,-1.188558 0,-0.432231 -0.323803,-0.808892 -0.799951,-1.04438 V 32.873066 H 21.70152 C 21.69412,28.882534 21.63656,24.918723 21.60437,20.908421 H 21.361487 V 6.35 Z" /><g
       id="g3084"
       transform="matrix(0.24567025,0,0,0.24567025,-4.0707655,6.713454)"
       style="stroke-width:1.07692" /><g
       id="g3116"
       transform="matrix(0.24567025,0,0,0.24567025,-4.0707655,6.713454)"
       style="stroke-width:1.07692" /><path
       d="M 27.183467,138.76224"
       id="path3120"
       style="fill:none;stroke:#000000;stroke-width:0.0264568;stroke-opacity:1" /><path
       d="M 24.568691,99.204233"
       id="path3122"
       style="fill:none;stroke:#000000;stroke-width:0.0264568;stroke-opacity:1" /><path
       d="M 17.10397,99.001642"
       id="path3124"
       style="fill:none;stroke:#000000;stroke-width:0.0264568;stroke-opacity:1" /><path
       d="M 14.489195,138.55822"
       id="path3126"
       style="fill:none;stroke:#000000;stroke-width:0.0264568;stroke-opacity:1" /></g><path
     d="M 43.47046,22.295423 V 133.70291 H 65.400146 V 23.170322 c 0,-0.583266 -0.148251,-0.874899 -0.39519,-0.874899 z m 28.251754,0 v 39.663389 h -3.556179 v 25.081245 h 3.556179 V 133.70291 H 93.651901 V 22.295423 Z"
     id="path838"
     style="font-size:74.6667px;line-height:0.85;font-family:'Call Of Ops Duty';-inkscape-font-specification:'Call Of Ops Duty, Normal';text-align:end;white-space:pre;fill:#30a4eb;stroke-width:1.1464" /><path
     d="M 109.80283,22.256035 C 102.44353,95.650364 98.739187,132.78617 98.739187,133.66335 h 20.546733 c 4.59337,-55.630544 6.91476,-84.213406 6.91476,-85.675431 h 0.19738 c 2.46957,30.044887 3.75374,45.469388 3.75374,46.200375 h -4.34643 c -0.5433,5.117155 -0.98785,11.257736 -1.38294,18.421756 v 0.29212 h 7.30991 c 0.49392,7.45637 0.83963,11.11149 0.9878,11.11149 0.2965,6.43291 0.64207,9.64938 0.98783,9.64938 h 20.1516 C 146.74726,68.894762 142.89475,34.829246 142.40082,31.612773 c -0.49392,-6.213644 -0.88901,-9.357045 -1.18539,-9.357045 z"
     id="path840"
     style="font-size:74.6667px;line-height:0.85;font-family:'Call Of Ops Duty';-inkscape-font-specification:'Call Of Ops Duty, Normal';text-align:end;white-space:pre;fill:#30a4eb;stroke-width:1.1479" /><path
     d="m 182.40786,22.295423 c -3.35862,0 -6.76659,0.846126 -10.27338,2.53838 -5.82816,3.173008 -9.87821,8.038269 -12.05145,14.666357 -1.18538,1.903752 -1.77808,13.256043 -1.77808,34.127315 v 11.281761 c 0,21.294364 1.28416,33.563254 3.95132,36.947814 4.44521,7.89725 11.45875,11.84586 20.94185,11.84586 h 2.17324 c 8.84101,0 15.80517,-4.23068 20.94184,-12.69198 2.46955,-3.66658 3.75373,-12.97407 3.75373,-27.922414 v -4.512702 h -21.92969 v 17.204736 c 0,6.4165 -1.136,9.58947 -3.35858,9.58947 h -0.5927 c -0.49392,0 -1.08661,-0.0702 -1.7781,-0.28203 -1.33355,-0.5641 -1.97563,-3.24349 -1.97563,-8.17929 V 49.0898 c 0,-5.640904 1.03718,-8.461311 3.16104,-8.461311 h 1.77809 c 0.29649,0 0.54326,0.141234 0.79024,0.282028 1.28417,0 1.97564,4.160193 1.97564,12.409916 V 71.08927 h 21.92969 V 60.935705 c 0,-9.871581 -0.74086,-17.627822 -2.17319,-23.127667 -4.59341,-10.294623 -12.10087,-15.512439 -22.52238,-15.512439 z"
     id="path842"
     style="font-size:74.6667px;line-height:0.85;font-family:'Call Of Ops Duty';-inkscape-font-specification:'Call Of Ops Duty, Normal';text-align:end;white-space:pre;fill:#30a4eb;stroke-width:1.12737" /><path
     d="M 215.00605,22.295423 V 133.70291 h 21.92969 V 87.915046 h 0.19738 l 8.29769,45.787864 H 268.1508 L 254.51882,72.749592 266.9654,22.295423 h -20.54673 c -6.22329,27.414399 -9.28555,41.413232 -9.28555,41.996542 h -0.19738 V 22.878688 c 0,-0.291676 -0.14826,-0.510368 -0.3952,-0.583265 z"
     id="path844"
     style="font-size:74.6667px;line-height:0.85;font-family:'Call Of Ops Duty';-inkscape-font-specification:'Call Of Ops Duty, Normal';text-align:end;white-space:pre;fill:#30a4eb;stroke-width:1.1464" /><path
     d="M 273.18848,22.295423 V 132.82359 l -0.19738,0.58632 0.3952,0.293 h 34.77137 V 111.12816 H 294.92061 V 22.295423 Z"
     id="path846"
     style="font-size:74.6667px;line-height:0.85;font-family:'Call Of Ops Duty';-inkscape-font-specification:'Call Of Ops Duty, Normal';text-align:end;white-space:pre;fill:#30a4eb;stroke-width:1.14941" /><path
     d="M 324.0614,22.295423 C 316.70213,95.68984 312.9978,132.82569 312.9978,133.70291 h 20.54673 c 4.59337,-55.630673 6.91478,-84.213534 6.91478,-85.675604 h 0.19737 c 2.46956,30.044931 3.75374,45.469476 3.75374,46.200506 h -4.34643 c -0.54332,5.117113 -0.98785,11.257688 -1.38295,18.421718 v 0.29212 h 7.30986 c 0.49392,7.45645 0.83968,11.11153 0.98785,11.11153 0.2965,6.43299 0.64208,9.64946 0.9878,9.64946 h 20.15164 C 361.00587,68.934499 357.15337,34.868986 356.65945,31.652468 c -0.49392,-6.213688 -0.88907,-9.357045 -1.1854,-9.357045 z"
     id="path848"
     style="font-size:74.6667px;line-height:0.85;font-family:'Call Of Ops Duty';-inkscape-font-specification:'Call Of Ops Duty, Normal';text-align:end;white-space:pre;fill:#30a4eb;stroke-width:1.1479" /><path
     id="path850"
     style="font-size:74.6667px;line-height:0.85;font-family:'Call Of Ops Duty';-inkscape-font-specification:'Call Of Ops Duty, Normal';text-align:end;white-space:pre;fill:#30a4eb;stroke-width:1.1464"
     d="m 397.25872,133.73828 h 5.13734 c 6.51961,0 11.26119,-0.87457 14.22466,-2.62445 4.44519,-2.91642 6.71711,-10.06194 6.71711,-21.5818 V 96.116685 c 0,-7.655569 -1.28451,-13.270208 -3.75405,-16.915729 -2.46957,-2.770622 -5.33404,-4.665982 -8.69267,-5.54088 V 73.3681 c 0.5927,0 2.12377,-0.583059 4.54394,-1.749635 4.19823,-2.041519 6.3219,-7.145179 6.3219,-15.456959 v -5.250015 c 0,-9.551252 -1.77767,-16.623513 -5.33385,-21.289816 -2.86818,-4.657371 -9.26376,-7.121941 -19.16438,-7.276083 v 19.484117 c 0.0639,0.01375 0.1416,0.02666 0.19817,0.04052 2.61771,0 3.95112,3.208558 3.95112,9.624657 v 2.041612 c 0,2.916372 -0.0985,4.520056 -0.19762,4.957484 0,4.885036 -1.13625,7.291069 -3.35883,7.291069 h -0.59284 v 18.081967 c 1.43233,0.364488 2.17316,0.656126 2.17316,0.874819 1.28422,0 1.97613,2.770531 1.97613,8.165888 v 11.957695 c 0,3.35384 -0.1483,4.95803 -0.39524,4.95803 0,2.44824 -1.27111,3.91347 -3.75405,4.44014 z" /><path
     id="path510"
     style="font-size:74.6667px;line-height:0.85;font-family:'Call Of Ops Duty';-inkscape-font-specification:'Call Of Ops Duty, Normal';text-align:end;white-space:pre;fill:#30a4eb;stroke-width:1.1464"
     d="M 394.27068,22.330604 H 372.56344 V 133.73828 h 21.70724 z" /><path
     d="m 427.51398,109.29813 v 24.34245 h 17.82569 v -23.79387 c 0,-0.27457 -0.12062,-0.47997 -0.32107,-0.54858 z"
     id="path473"
     style="font-size:74.6667px;line-height:0.75;font-family:'Call Of Ops Duty';-inkscape-font-specification:'Call Of Ops Duty, Normal';text-align:end;white-space:pre;fill:#30a4eb;fill-opacity:1;stroke-width:1.16049" /><path
     d="m 450.16944,22.295423 c -0.25921,0 -0.41404,0.219306 -0.41404,0.584801 v 21.930607 h 13.46565 v 88.307239 c 0,0.43861 0.10355,0.58484 0.41406,0.58484 h 22.78791 V 44.810831 h 13.46565 V 22.880224 c 0,-0.292115 -0.1557,-0.511684 -0.41404,-0.584801 z"
     id="path475"
     style="font-size:74.6667px;line-height:0.75;font-family:'Call Of Ops Duty';-inkscape-font-specification:'Call Of Ops Duty, Normal';text-align:end;white-space:pre;fill:#30a4eb;fill-opacity:1;stroke-width:1.36093" /><path
     id="path477"
     style="font-size:74.6667px;line-height:0.75;font-family:'Call Of Ops Duty';-inkscape-font-specification:'Call Of Ops Duty, Normal';text-align:end;white-space:pre;fill:#30a4eb;fill-opacity:1;stroke-width:1.29466"
     d="m 528.52799,22.295511 v 18.600795 c 0.38159,0.18641 0.57747,0.416682 0.57747,0.70463 0.78328,0 1.17545,4.409148 1.17545,13.1574 v 43.671738 c 0,4.619066 -0.0969,7.488776 -0.19519,8.678556 0,4.20905 -0.52735,6.83459 -1.55787,7.8794 v 18.71461 h 0.1873 c 9.30177,0 16.20474,-5.03851 20.75775,-15.1165 1.6645,-2.44951 2.54593,-12.80655 2.54593,-31.072908 V 68.476369 c 0,-15.816836 -0.54002,-25.125195 -1.56812,-27.994683 -3.9412,-11.886609 -11.23493,-17.968053 -21.9229,-18.186175 z m -3.15165,0.0088 c -9.8614,0.321064 -16.92243,5.487741 -21.14009,15.378533 -1.56664,3.429332 -2.35092,11.617607 -2.35092,24.634957 v 33.592686 c 0,12.387503 1.02854,20.506473 3.13367,24.355693 4.7488,8.95826 11.45572,13.43667 20.17002,13.43667 h 0.18727 v -18.47624 c -1.16819,-0.0219 -1.75291,-3.6593 -1.75291,-10.91684 V 49.160372 c 0,-4.178526 0.5731,-6.864937 1.75291,-8.021164 z" /></svg>
